<?plantuml 1.2026.1?><svg xmlns="http://www.w3.org/2000/svg" xmlns:xlink="http://www.w3.org/1999/xlink" contentStyleType="text/css" data-diagram-type="DESCRIPTION" height="482px" preserveAspectRatio="none" style="width:1020px;height:482px;background:#FFFFFF;" version="1.1" viewBox="0 0 1020 241" width="1020px" zoomAndPan="magnify"><title>SupportBot - System Context</title><defs/><g><g class="title" data-source-line="1"><text fill="#000000" font-family="sans-serif" font-size="14" font-weight="bold" lengthAdjust="spacing" textLength="230.8086" x="387.8592" y="22.9951">SupportBot - System Context</text></g><!--cluster SupportBot--><g class="cluster" data-qualified-name="SupportBot" data-source-line="23" id="ent0005"><rect fill="#EEF2FF" height="191" rx="2.5" ry="2.5" style="stroke:#1F2937;stroke-width:1;" width="440.96" x="377.23" y="44.2969"/><text fill="#000000" font-family="sans-serif" font-size="14" font-weight="bold" lengthAdjust="spacing" textLength="90.2891" x="552.5655" y="59.292">SupportBot</text></g><!--entity SupportAdmin--><g class="entity" data-qualified-name="SupportBot.SupportAdmin" data-source-line="24" id="ent0006"><rect fill="#F8FAFC" height="52.5938" rx="2.5" ry="2.5" style="stroke:#1F2937;stroke-width:0.5;" width="195.5674" x="393.23" y="166.9969"/><text fill="#000000" font-family="sans-serif" font-size="14" lengthAdjust="spacing" textLength="102.6689" x="439.6792" y="189.992">support-admin</text><text fill="#000000" font-family="sans-serif" font-size="14" lengthAdjust="spacing" textLength="175.5674" x="403.23" y="206.2889">Next.js admin dashboard</text></g><!--entity TelegramWebhook--><g class="entity" data-qualified-name="SupportBot.TelegramWebhook" data-source-line="25" id="ent0007"><rect fill="#F8FAFC" height="52.5938" rx="2.5" ry="2.5" style="stroke:#1F2937;stroke-width:0.5;" width="193.0449" x="394.49" y="78.9969"/><text fill="#000000" font-family="sans-serif" font-size="14" lengthAdjust="spacing" textLength="131.5781" x="425.2234" y="101.992">telegram-webhook</text><text fill="#000000" font-family="sans-serif" font-size="14" lengthAdjust="spacing" textLength="173.0449" x="404.49" y="118.2889">Supabase Edge Function</text></g><!--entity MessagesDb--><g class="entity" data-qualified-name="SupportBot.MessagesDb" data-source-line="26" id="ent0008"><path d="M648.8,89.4969 C648.8,79.4969 725.4948,79.4969 725.4948,79.4969 C725.4948,79.4969 802.1896,79.4969 802.1896,89.4969 L802.1896,131.0906 C802.1896,141.0906 725.4948,141.0906 725.4948,141.0906 C725.4948,141.0906 648.8,141.0906 648.8,131.0906 L648.8,89.4969" fill="#ECFEFF" style="stroke:#1F2937;stroke-width:0.5;"/><path d="M648.8,89.4969 C648.8,99.4969 725.4948,99.4969 725.4948,99.4969 C725.4948,99.4969 802.1896,99.4969 802.1896,89.4969" fill="none" style="stroke:#1F2937;stroke-width:0.5;"/><text fill="#000000" font-family="sans-serif" font-size="14" lengthAdjust="spacing" textLength="133.3896" x="658.8" y="116.492">Supabase Postgres</text><text fill="#000000" font-family="sans-serif" font-size="14" lengthAdjust="spacing" textLength="116.7852" x="667.1022" y="132.7889">public.messages</text></g><!--entity TelegramUser--><g class="entity" data-qualified-name="TelegramUser" data-source-line="19" id="ent0002"><ellipse cx="80.5538" cy="73.6469" fill="#FEF3C7" rx="8" ry="8" style="stroke:#1F2937;stroke-width:0.5;"/><path d="M80.5538,81.6469 L80.5538,108.6469 M67.5538,89.6469 L93.5538,89.6469 M80.5538,108.6469 L67.5538,123.6469 M80.5538,108.6469 L93.5538,123.6469" fill="none" style="stroke:#1F2937;stroke-width:0.5;"/><text fill="#000000" font-family="sans-serif" font-size="14" lengthAdjust="spacing" textLength="102.8877" x="29.11" y="138.142">Telegram User</text></g><!--entity SupportManager--><g class="entity" data-qualified-name="SupportManager" data-source-line="20" id="ent0003"><ellipse cx="262.6101" cy="164.6469" fill="#FEF3C7" rx="8" ry="8" style="stroke:#1F2937;stroke-width:0.5;"/><path d="M262.6101,172.6469 L262.6101,199.6469 M249.6101,180.6469 L275.6101,180.6469 M262.6101,199.6469 L249.6101,214.6469 M262.6101,199.6469 L275.6101,214.6469" fill="none" style="stroke:#1F2937;stroke-width:0.5;"/><text fill="#000000" font-family="sans-serif" font-size="14" lengthAdjust="spacing" textLength="121.1602" x="202.03" y="229.142">Support Manager</text></g><!--entity TelegramApi--><g class="entity" data-qualified-name="TelegramApi" data-source-line="21" id="ent0004"><rect fill="#F8FAFC" height="36.2969" rx="2.5" ry="2.5" style="stroke:#1F2937;stroke-width:0.5;" width="141.2354" x="191.99" y="85.1469"/><text fill="#000000" font-family="sans-serif" font-size="14" lengthAdjust="spacing" textLength="121.2354" x="201.99" y="108.142">Telegram Bot API</text></g><!--entity SupabasePlatform--><g class="entity" data-qualified-name="SupabasePlatform" data-source-line="29" id="ent0009"><rect fill="#F8FAFC" height="36.2969" rx="2.5" ry="2.5" style="stroke:#1F2937;stroke-width:0.5;" width="152.3369" x="862.19" y="176.1469"/><text fill="#000000" font-family="sans-serif" font-size="14" lengthAdjust="spacing" textLength="132.3369" x="872.19" y="199.142">Supabase Platform</text></g><!--link TelegramUser to TelegramApi--><g class="link" data-entity-1="ent0002" data-entity-2="ent0004" data-link-type="dependency" data-source-line="31" id="lnk10"><path d="M132.23,103.2969 C150.74,103.2969 165.92,103.2969 185.77,103.2969" fill="none" id="TelegramUser-to-TelegramApi" style="stroke:#4B5563;stroke-width:1.2;"/><polygon fill="#4B5563" points="191.77,103.2969,182.77,99.2969,186.77,103.2969,182.77,107.2969,191.77,103.2969" style="stroke:#4B5563;stroke-width:1.2;"/><text fill="#000000" font-family="sans-serif" font-size="13" lengthAdjust="spacing" textLength="154.6353" x="7" y="116.3638">sends support message</text></g><!--link TelegramApi to TelegramWebhook--><g class="link" data-entity-1="ent0004" data-entity-2="ent0007" data-link-type="dependency" data-source-line="32" id="lnk11"><path d="M333.63,109.3469 C352.75,109.3469 367.76,109.3469 388.03,109.3469" fill="none" id="TelegramApi-to-TelegramWebhook" style="stroke:#4B5563;stroke-width:1.2;"/><polygon fill="#4B5563" points="394.03,109.3469,385.03,105.3469,389.03,109.3469,385.03,113.3469,394.03,109.3469" style="stroke:#4B5563;stroke-width:1.2;"/><text fill="#000000" font-family="sans-serif" font-size="13" lengthAdjust="spacing" textLength="169.4697" x="193.83" y="122.4138">forwards webhook update</text></g><!--link TelegramWebhook to TelegramApi--><g class="link" data-entity-1="ent0007" data-entity-2="ent0004" data-link-type="dependency" data-source-line="34" id="lnk13"><path d="M394.15,97.2469 C373.85,97.2469 358.79,97.2469 339.64,97.2469" fill="none" id="TelegramWebhook-to-TelegramApi" style="stroke:#4B5563;stroke-width:1.2;"/><polygon fill="#4B5563" points="333.64,97.2469,342.64,101.2469,338.64,97.2469,342.64,93.2469,333.64,97.2469" style="stroke:#4B5563;stroke-width:1.2;"/><text fill="#000000" font-family="sans-serif" font-size="13" lengthAdjust="spacing" textLength="161.7446" x="201.89" y="93.3138">sends acknowledgement</text></g><!--link TelegramWebhook to MessagesDb--><g class="link" data-entity-1="ent0007" data-entity-2="ent0008" data-link-type="dependency" data-source-line="33" id="lnk12"><path d="M587.74,96.8669 C607.92,96.8669 622.94,96.8669 642.31,96.8669" fill="none" id="TelegramWebhook-to-MessagesDb" style="stroke:#4B5563;stroke-width:1.2;"/><polygon fill="#4B5563" points="648.31,96.8669,639.31,92.8669,643.31,96.8669,639.31,100.8669,648.31,96.8669" style="stroke:#4B5563;stroke-width:1.2;"/><text fill="#000000" font-family="sans-serif" font-size="13" lengthAdjust="spacing" textLength="170.0981" x="619.02" y="109.9338">persists inbound message</text></g><!--link SupportManager to SupportAdmin--><g class="link" data-entity-1="ent0003" data-entity-2="ent0006" data-link-type="dependency" data-source-line="36" id="lnk14"><path d="M323.52,193.2969 C344.79,193.2969 363.25,193.2969 386.79,193.2969" fill="none" id="SupportManager-to-SupportAdmin" style="stroke:#4B5563;stroke-width:1.2;"/><polygon fill="#4B5563" points="392.79,193.2969,383.79,189.2969,387.79,193.2969,383.79,197.2969,392.79,193.2969" style="stroke:#4B5563;stroke-width:1.2;"/><text fill="#000000" font-family="sans-serif" font-size="13" lengthAdjust="spacing" textLength="112.3472" x="245.15" y="206.3638">opens dashboard</text></g><!--link SupportAdmin to MessagesDb--><g class="link" data-entity-1="ent0006" data-entity-2="ent0008" data-link-type="dependency" data-source-line="37" id="lnk15"><path d="M589.02,171.5769 C643.55,171.5769 700.52,171.5769 700.52,171.5769 C700.52,171.5769 700.52,162.4969 700.52,147.2969" fill="none" id="SupportAdmin-to-MessagesDb" style="stroke:#4B5563;stroke-width:1.2;"/><polygon fill="#4B5563" points="700.52,141.2969,696.52,150.2969,700.52,146.2969,704.52,150.2969,700.52,141.2969" style="stroke:#4B5563;stroke-width:1.2;"/><text fill="#000000" font-family="sans-serif" font-size="13" lengthAdjust="spacing" textLength="147.7354" x="660.91" y="167.6438">reads message history</text></g><!--link TelegramWebhook to SupabasePlatform--><g class="link" data-entity-1="ent0007" data-entity-2="ent0009" data-link-type="dependency" data-source-line="39" id="lnk16"><path d="M587.76,114.2269 C606.01,114.2269 619.52,114.2269 619.52,114.2269 C619.52,114.2269 619.52,194.2969 619.52,194.2969 C619.52,194.2969 761.66,194.2969 855.99,194.2969" fill="none" id="TelegramWebhook-to-SupabasePlatform" style="stroke:#4B5563;stroke-width:1.2;"/><polygon fill="#4B5563" points="861.99,194.2969,852.99,190.2969,856.99,194.2969,852.99,198.2969,861.99,194.2969" style="stroke:#4B5563;stroke-width:1.2;"/><text fill="#000000" font-family="sans-serif" font-size="13" lengthAdjust="spacing" textLength="80.3359" x="603.84" y="207.3638">deployed on</text></g><!--link MessagesDb to SupabasePlatform--><g class="link" data-entity-1="ent0008" data-entity-2="ent0009" data-link-type="dependency" data-source-line="40" id="lnk17"><path d="M751.52,141.2069 C751.52,161.8469 751.52,185.2269 751.52,185.2269 C751.52,185.2269 804.23,185.2269 855.82,185.2269" fill="none" id="MessagesDb-to-SupabasePlatform" style="stroke:#4B5563;stroke-width:1.2;"/><polygon fill="#4B5563" points="861.82,185.2269,852.82,181.2269,856.82,185.2269,852.82,189.2269,861.82,185.2269" style="stroke:#4B5563;stroke-width:1.2;"/><text fill="#000000" font-family="sans-serif" font-size="13" lengthAdjust="spacing" textLength="64.3906" x="719.66" y="198.2938">hosted by</text></g><!--link SupportAdmin to SupabasePlatform--><g class="link" data-entity-1="ent0006" data-entity-2="ent0009" data-link-type="dependency" data-source-line="41" id="lnk18"><path d="M589.18,203.3669 C671.23,203.3669 780.58,203.3669 855.89,203.3669" fill="none" id="SupportAdmin-to-SupabasePlatform" style="stroke:#4B5563;stroke-width:1.2;"/><polygon fill="#4B5563" points="861.89,203.3669,852.89,199.3669,856.89,203.3669,852.89,207.3669,861.89,203.3669" style="stroke:#4B5563;stroke-width:1.2;"/><text fill="#000000" font-family="sans-serif" font-size="13" lengthAdjust="spacing" textLength="201.7158" x="726.54" y="216.4338">uses project URL and anon key</text></g><?plantuml-src XLJBRjim4BppAnRfsGPYDqtRGm4bQO42JM743dBnXHAN4cEA54WAhb3qtxkIAPj-DBqOqkxCxEp32YfeX6NRDDQ5EnjW0ilE1wpXtfg0lm9Z6cM0OC6fiWeWbCCYA6kOtoZJSCThy1KNTgjC2P9hZqccuSM6bxWC7LNfYToKEWLePJ1q3GALhsoI42XvgyEAB6HQbQP64w2W7tG9AdFERk-jjWxUlSzlRZxCJvEhIXKRWzx3zNIM99z6CtVM2NHHurhEFirlByAeazBPreW8bHybbqK2NUnwVLjl19sg8SgPb0dmWGUUS_yVkJtgJA-GUAIN5S6wjyLsaBC-KSwBMyPuduMh5MeiU_IpHtS5tCCOwGCZAXuKF793tUvmCHP3R7yDYMP_WDdY-v5irYZ6uXtjXGcOQlQytmmWqVIxp8IBMfcr-KbtD7trCBo2uBxABNSY5SdwrB58Y1ucMymhQpThGzXXuF1La9rlhHd-2qU6NtPOKX9nEuFjtTF2-b0wz6lJjBbMnRIcqwJE_23n65yUSlQ7fHCwy3KFqhfwD3v4no1ZwIvWClcIJX4-WqSZFCJHG2pDKapAYOqGZyItD2qFSGxGDjJRWJaYU_QX1o8swBpomOCoUNzJPpLJvYMlj7TZjnffslqNWB7ZAnfuwVw8Q1iq_h1YTfG-S-YGKvbe2oeoQrt7Blex7JUn1JRQTYY0leU9x3_G5IsVi7btxka2klNeeN7sbSu0dfz-0AVvSMCDRB1ZVm40?></g></svg>