<?plantuml 1.2026.1?><svg xmlns="http://www.w3.org/2000/svg" xmlns:xlink="http://www.w3.org/1999/xlink" contentStyleType="text/css" data-diagram-type="DESCRIPTION" height="515px" preserveAspectRatio="none" style="width:1111px;height:515px;background:#FFFFFF;" version="1.1" viewBox="0 0 1111 515" width="1111px" zoomAndPan="magnify"><title>SupportBot - Container Diagram</title><defs/><g><g class="title" data-source-line="1"><text fill="#000000" font-family="sans-serif" font-size="14" font-weight="bold" lengthAdjust="spacing" textLength="254.7139" x="421.6131" y="22.9951">SupportBot - Container Diagram</text></g><!--cluster SupportBot--><g class="cluster" data-qualified-name="SupportBot" data-source-line="24" id="ent0006"><rect fill="#EEF2FF" height="395" rx="2.5" ry="2.5" style="stroke:#1F2937;stroke-width:1;" width="795.89" x="310.05" y="114.9469"/><text fill="#000000" font-family="sans-serif" font-size="14" font-weight="bold" lengthAdjust="spacing" textLength="180.6602" x="617.6649" y="129.942">SupportBot Containers</text></g><!--cluster SupportAdminBoundary--><g class="cluster" data-qualified-name="SupportBot.SupportAdminBoundary" data-source-line="25" id="ent0007"><rect fill="#EEF2FF" height="191" rx="2.5" ry="2.5" style="stroke:#1F2937;stroke-width:1;" width="551.1" x="334.05" y="294.9469"/><text fill="#000000" font-family="sans-serif" font-size="14" font-weight="bold" lengthAdjust="spacing" textLength="116.1904" x="551.5048" y="309.942">support-admin</text></g><!--cluster SupabaseBoundary--><g class="cluster" data-qualified-name="SupportBot.SupabaseBoundary" data-source-line="31" id="ent0011"><rect fill="#EEF2FF" height="113" rx="2.5" ry="2.5" style="stroke:#1F2937;stroke-width:1;" width="451.22" x="630.72" y="157.9469"/><text fill="#000000" font-family="sans-serif" font-size="14" font-weight="bold" lengthAdjust="spacing" textLength="137.7578" x="787.4511" y="172.942">Supabase Project</text></g><!--entity NextPage--><g class="entity" data-qualified-name="SupportBot.SupportAdminBoundary.NextPage" data-source-line="26" id="ent0008"><rect fill="#F8FAFC" height="52.5938" rx="2.5" ry="2.5" style="stroke:#1F2937;stroke-width:0.5;" width="173.2275" x="350.05" y="329.6469"/><text fill="#000000" font-family="sans-serif" font-size="14" lengthAdjust="spacing" textLength="153.2275" x="360.05" y="352.642">Next.js page renderer</text><text fill="#000000" font-family="sans-serif" font-size="14" lengthAdjust="spacing" textLength="117.0176" x="378.155" y="368.9389">src/app/page.tsx</text></g><!--entity DashboardUi--><g class="entity" data-qualified-name="SupportBot.SupportAdminBoundary.DashboardUi" data-source-line="27" id="ent0009"><rect fill="#F8FAFC" height="52.5938" rx="2.5" ry="2.5" style="stroke:#1F2937;stroke-width:0.5;" width="285.877" x="583.28" y="417.6469"/><text fill="#000000" font-family="sans-serif" font-size="14" lengthAdjust="spacing" textLength="142.4473" x="654.9948" y="440.642">Admin dashboard UI</text><text fill="#000000" font-family="sans-serif" font-size="14" lengthAdjust="spacing" textLength="265.877" x="593.28" y="456.9389">AdminDashboard + child components</text></g><!--entity AdminSupabaseClient--><g class="entity" data-qualified-name="SupportBot.SupportAdminBoundary.AdminSupabaseClient" data-source-line="28" id="ent0010"><rect fill="#F8FAFC" height="52.5938" rx="2.5" ry="2.5" style="stroke:#1F2937;stroke-width:0.5;" width="151.0859" x="650.67" y="329.6469"/><text fill="#000000" font-family="sans-serif" font-size="14" lengthAdjust="spacing" textLength="128.9668" x="661.7296" y="352.642">Supabase JS client</text><text fill="#000000" font-family="sans-serif" font-size="14" lengthAdjust="spacing" textLength="131.0859" x="660.67" y="368.9389">src/lib/supabase.ts</text></g><!--entity Webhook--><g class="entity" data-qualified-name="SupportBot.SupabaseBoundary.Webhook" data-source-line="32" id="ent0012"><rect fill="#F8FAFC" height="52.5938" rx="2.5" ry="2.5" style="stroke:#1F2937;stroke-width:0.5;" width="158.9951" x="646.72" y="195.6469"/><text fill="#000000" font-family="sans-serif" font-size="14" lengthAdjust="spacing" textLength="131.5781" x="660.4285" y="218.642">telegram-webhook</text><text fill="#000000" font-family="sans-serif" font-size="14" lengthAdjust="spacing" textLength="138.9951" x="656.72" y="234.9389">Deno HTTP function</text></g><!--entity MessagesDb--><g class="entity" data-qualified-name="SupportBot.SupabaseBoundary.MessagesDb" data-source-line="33" id="ent0013"><path d="M929.15,203.1469 C929.15,193.1469 997.5426,193.1469 997.5426,193.1469 C997.5426,193.1469 1065.9352,193.1469 1065.9352,203.1469 L1065.9352,244.7406 C1065.9352,254.7406 997.5426,254.7406 997.5426,254.7406 C997.5426,254.7406 929.15,254.7406 929.15,244.7406 L929.15,203.1469" fill="#ECFEFF" style="stroke:#1F2937;stroke-width:0.5;"/><path d="M929.15,203.1469 C929.15,213.1469 997.5426,213.1469 997.5426,213.1469 C997.5426,213.1469 1065.9352,213.1469 1065.9352,203.1469" fill="none" style="stroke:#1F2937;stroke-width:0.5;"/><text fill="#000000" font-family="sans-serif" font-size="14" lengthAdjust="spacing" textLength="100.249" x="947.4181" y="230.142">Postgres table</text><text fill="#000000" font-family="sans-serif" font-size="14" lengthAdjust="spacing" textLength="116.7852" x="939.15" y="246.4389">public.messages</text></g><!--entity TelegramUser--><g class="entity" data-qualified-name="TelegramUser" data-source-line="19" id="ent0002"><ellipse cx="238.6038" cy="51.2969" fill="#FEF3C7" rx="8" ry="8" style="stroke:#1F2937;stroke-width:0.5;"/><path d="M238.6038,59.2969 L238.6038,86.2969 M225.6038,67.2969 L251.6038,67.2969 M238.6038,86.2969 L225.6038,101.2969 M238.6038,86.2969 L251.6038,101.2969" fill="none" style="stroke:#1F2937;stroke-width:0.5;"/><text fill="#000000" font-family="sans-serif" font-size="14" lengthAdjust="spacing" textLength="102.8877" x="187.16" y="115.792">Telegram User</text></g><!--entity SupportManager--><g class="entity" data-qualified-name="SupportManager" data-source-line="20" id="ent0003"><ellipse cx="66.5801" cy="326.2969" fill="#FEF3C7" rx="8" ry="8" style="stroke:#1F2937;stroke-width:0.5;"/><path d="M66.5801,334.2969 L66.5801,361.2969 M53.5801,342.2969 L79.5801,342.2969 M66.5801,361.2969 L53.5801,376.2969 M66.5801,361.2969 L79.5801,376.2969" fill="none" style="stroke:#1F2937;stroke-width:0.5;"/><text fill="#000000" font-family="sans-serif" font-size="14" lengthAdjust="spacing" textLength="121.1602" x="6" y="390.792">Support Manager</text></g><!--entity TelegramApi--><g class="entity" data-qualified-name="TelegramApi" data-source-line="21" id="ent0004"><rect fill="#F8FAFC" height="36.2969" rx="2.5" ry="2.5" style="stroke:#1F2937;stroke-width:0.5;" width="141.2354" x="366.04" y="62.7969"/><text fill="#000000" font-family="sans-serif" font-size="14" lengthAdjust="spacing" textLength="121.2354" x="376.04" y="85.792">Telegram Bot API</text></g><!--entity Browser--><g class="entity" data-qualified-name="Browser" data-source-line="22" id="ent0005"><rect fill="#F8FAFC" height="36.2969" rx="2.5" ry="2.5" style="stroke:#1F2937;stroke-width:0.5;" width="77.0391" x="200.08" y="337.7969"/><text fill="#000000" font-family="sans-serif" font-size="14" lengthAdjust="spacing" textLength="57.0391" x="210.08" y="360.792">Browser</text></g><!--link SupportManager to Browser--><g class="link" data-entity-1="ent0003" data-entity-2="ent0005" data-link-type="dependency" data-source-line="37" id="lnk14"><path d="M127.23,355.9469 C151.32,355.9469 172.32,355.9469 193.7,355.9469" fill="none" id="SupportManager-to-Browser" style="stroke:#4B5563;stroke-width:1.2;"/><polygon fill="#4B5563" points="199.7,355.9469,190.7,351.9469,194.7,355.9469,190.7,359.9469,199.7,355.9469" style="stroke:#4B5563;stroke-width:1.2;"/><text fill="#000000" font-family="sans-serif" font-size="13" lengthAdjust="spacing" textLength="29.7832" x="133.46" y="369.0138">uses</text></g><!--link Browser to NextPage--><g class="link" data-entity-1="ent0005" data-entity-2="ent0008" data-link-type="dependency" data-source-line="38" id="lnk15"><path d="M277.26,355.9469 C297.98,355.9469 318.39,355.9469 343.73,355.9469" fill="none" id="Browser-to-NextPage" style="stroke:#4B5563;stroke-width:1.2;"/><polygon fill="#4B5563" points="349.73,355.9469,340.73,351.9469,344.73,355.9469,340.73,359.9469,349.73,355.9469" style="stroke:#4B5563;stroke-width:1.2;"/><text fill="#000000" font-family="sans-serif" font-size="13" lengthAdjust="spacing" textLength="137.9409" x="175.49" y="369.0138">requests admin page</text></g><!--link NextPage to AdminSupabaseClient--><g class="link" data-entity-1="ent0008" data-entity-2="ent0010" data-link-type="dependency" data-source-line="39" id="lnk16"><path d="M523.54,347.1769 C563.85,347.1769 605.33,347.1769 644.2,347.1769" fill="none" id="NextPage-to-AdminSupabaseClient" style="stroke:#4B5563;stroke-width:1.2;"/><polygon fill="#4B5563" points="650.2,347.1769,641.2,343.1769,645.2,347.1769,641.2,351.1769,650.2,347.1769" style="stroke:#4B5563;stroke-width:1.2;"/><text fill="#000000" font-family="sans-serif" font-size="13" lengthAdjust="spacing" textLength="129.8223" x="587.87" y="360.2438">creates query client</text></g><!--link NextPage to MessagesDb--><g class="link" data-entity-1="ent0008" data-entity-2="ent0013" data-link-type="dependency" data-source-line="40" id="lnk17"><path d="M515.94,329.2069 C515.94,309.5569 515.94,286.2669 515.94,286.2669 C515.94,286.2669 974.94,286.2669 974.94,286.2669 C974.94,286.2669 974.94,276.6869 974.94,261.1069" fill="none" id="NextPage-to-MessagesDb" style="stroke:#4B5563;stroke-width:1.2;"/><polygon fill="#4B5563" points="974.94,255.1069,970.94,264.1069,974.94,260.1069,978.94,264.1069,974.94,255.1069" style="stroke:#4B5563;stroke-width:1.2;"/><text fill="#000000" font-family="sans-serif" font-size="13" lengthAdjust="spacing" textLength="114.7275" x="740.55" y="299.3338">selects messages</text></g><!--link NextPage to DashboardUi--><g class="link" data-entity-1="ent0008" data-entity-2="ent0009" data-link-type="dependency" data-source-line="41" id="lnk18"><path d="M523.67,364.7169 C569.35,364.7169 615.94,364.7169 615.94,364.7169 C615.94,364.7169 615.94,388.5169 615.94,411.5669" fill="none" id="NextPage-to-DashboardUi" style="stroke:#4B5563;stroke-width:1.2;"/><polygon fill="#4B5563" points="615.94,417.5669,619.94,408.5669,615.94,412.5669,611.94,408.5669,615.94,417.5669" style="stroke:#4B5563;stroke-width:1.2;"/><text fill="#000000" font-family="sans-serif" font-size="13" lengthAdjust="spacing" textLength="148.167" x="447.23" y="377.7838">passes initialMessages</text></g><!--link TelegramUser to TelegramApi--><g class="link" data-entity-1="ent0002" data-entity-2="ent0004" data-link-type="dependency" data-source-line="43" id="lnk19"><path d="M290.38,80.9469 C313.42,80.9469 334.91,80.9469 359.81,80.9469" fill="none" id="TelegramUser-to-TelegramApi" style="stroke:#4B5563;stroke-width:1.2;"/><polygon fill="#4B5563" points="365.81,80.9469,356.81,76.9469,360.81,80.9469,356.81,84.9469,365.81,80.9469" style="stroke:#4B5563;stroke-width:1.2;"/><text fill="#000000" font-family="sans-serif" font-size="13" lengthAdjust="spacing" textLength="100.5913" x="227.1" y="94.0138">sends message</text></g><!--link TelegramApi to Webhook--><g class="link" data-entity-1="ent0004" data-entity-2="ent0012" data-link-type="dependency" data-source-line="44" id="lnk20"><path d="M413.94,99.3069 C413.94,139.3069 413.94,230.7169 413.94,230.7169 C413.94,230.7169 548.09,230.7169 640.61,230.7169" fill="none" id="TelegramApi-to-Webhook" style="stroke:#4B5563;stroke-width:1.2;"/><polygon fill="#4B5563" points="646.61,230.7169,637.61,226.7169,641.61,230.7169,637.61,234.7169,646.61,230.7169" style="stroke:#4B5563;stroke-width:1.2;"/><text fill="#000000" font-family="sans-serif" font-size="13" lengthAdjust="spacing" textLength="140.0293" x="323.57" y="243.7838">POST update payload</text></g><!--link Webhook to TelegramApi--><g class="link" data-entity-1="ent0012" data-entity-2="ent0004" data-link-type="dependency" data-source-line="46" id="lnk22"><path d="M646.26,213.1769 C568.15,213.1769 460.94,213.1769 460.94,213.1769 C460.94,213.1769 460.94,141.6669 460.94,105.3369" fill="none" id="Webhook-to-TelegramApi" style="stroke:#4B5563;stroke-width:1.2;"/><polygon fill="#4B5563" points="460.94,99.3369,456.94,108.3369,460.94,104.3369,464.94,108.3369,460.94,99.3369" style="stroke:#4B5563;stroke-width:1.2;"/><text fill="#000000" font-family="sans-serif" font-size="13" lengthAdjust="spacing" textLength="126.6357" x="369.68" y="226.2438">POST sendMessage</text></g><!--link Webhook to MessagesDb--><g class="link" data-entity-1="ent0012" data-entity-2="ent0013" data-link-type="dependency" data-source-line="45" id="lnk21"><path d="M806.15,221.9469 C845.08,221.9469 885.41,221.9469 922.74,221.9469" fill="none" id="Webhook-to-MessagesDb" style="stroke:#4B5563;stroke-width:1.2;"/><polygon fill="#4B5563" points="928.74,221.9469,919.74,217.9469,923.74,221.9469,919.74,225.9469,928.74,221.9469" style="stroke:#4B5563;stroke-width:1.2;"/><text fill="#000000" font-family="sans-serif" font-size="13" lengthAdjust="spacing" textLength="163.3125" x="703.45" y="235.0138">inserts inbound message</text></g><!--link AdminSupabaseClient to MessagesDb--><g class="link" data-entity-1="ent0010" data-entity-2="ent0013" data-link-type="dependency" data-source-line="48" id="lnk23"><path d="M802.11,355.9469 C889.44,355.9469 1020.94,355.9469 1020.94,355.9469 C1020.94,355.9469 1020.94,300.2669 1020.94,261.2269" fill="none" id="AdminSupabaseClient-to-MessagesDb" style="stroke:#4B5563;stroke-width:1.2;"/><polygon fill="#4B5563" points="1020.94,255.2269,1016.94,264.2269,1020.94,260.2269,1024.94,264.2269,1020.94,255.2269" style="stroke:#4B5563;stroke-width:1.2;"/><text fill="#000000" font-family="sans-serif" font-size="13" lengthAdjust="spacing" textLength="154.1909" x="806.88" y="369.0138">connects with anon key</text></g><?plantuml-src XLJBRjim4BppAnRfiR2394rVXm9sV6WAf3Lg1xtuGb4hYJ5DgYI5n2ZwxrrIb4hRQNenhDtPcU5o92-zGbXrRMkidniF4xWnsdEfqS92yjho7MCAAm_UW9Lruw6K5eMNHZEtbRhb107NyD8yIbr3nPN3hDDoiUKrhloUXC8WrxNA0Ogq_Bv580UDoHebLhnJVerFVgPahNUeFGZwGPkXPjQQnnkZZ8LNRuhhwxTNnyrr8yLMetDmCRtCcjy7CtDZIxI9uwAw_73rxbaOdQIsfjDbWbRlArw93Bhip_eotm0wPaEiBgig0owuvmLt_w4RKITyei83lfdmnhvCraDEpedLbNZ760zTE5kZmf0Bk7Tepu0x62gXCA1Ifk2EQpfjZqkrL69Z6ZBEaC7PylQ0TjRA73kdEnsKqt_6Kin6tS0p9jdbwg7pYm6C4wwlJtYvapf7pa9X7XR1xJxE06G-lb8mfm-EYEgGR4rxHRlHpefpthRdeJprxYao1koI2iSSKG9Axfh2S5l2_Ur6nzfYBBq6qKXLWZ2xrcYAVt-Q4N0lZqd9Vem4V5c1K996UbTA5kSkzQQ99eeD0pSHJ7I_MRwWaMzfpGF933jAwVpNVdowliaZ5eqnsurUe3RmURrUGjNf-0c9L3_wVfmlKvpXR6cShoqwe8B2ZMwxGaantT6BJAvwztVfOL54qsJxC68mcNmQCW8VeNFesF0OMiErKC_YpmwTTn1Z42-LZUs0VMPJD2OiSaycQPXsq6_xSEwlHu8xseaWaU4KXz3iJWdRSaT-GMhf9LS33MFvsnR7ilSaIkXo561vBs3JhWct_BPQGzVImf6azihmaWtT4zzIavWFPefmtoDzFd1e8z87Buc7iUSMU28aZDPnGu_IDy2rqR35FVi3?></g></svg>