<?plantuml 1.2026.1?><svg xmlns="http://www.w3.org/2000/svg" xmlns:xlink="http://www.w3.org/1999/xlink" contentStyleType="text/css" data-diagram-type="DESCRIPTION" height="739px" preserveAspectRatio="none" style="width:1922px;height:739px;background:#FFFFFF;" version="1.1" viewBox="0 0 1922 739" width="1922px" zoomAndPan="magnify"><title>SupportBot - Component Diagram</title><defs/><g><g class="title" data-source-line="1"><text fill="#000000" font-family="sans-serif" font-size="14" font-weight="bold" lengthAdjust="spacing" textLength="267.791" x="820.4345" y="22.9951">SupportBot - Component Diagram</text></g><!--cluster SupportAdmin--><g class="cluster" data-qualified-name="SupportAdmin" data-source-line="24" id="ent0006"><rect fill="#EEF2FF" height="315" rx="2.5" ry="2.5" style="stroke:#1F2937;stroke-width:1;" width="1257" x="659.66" y="44.2969"/><text fill="#000000" font-family="sans-serif" font-size="14" font-weight="bold" lengthAdjust="spacing" textLength="116.1904" x="1230.0648" y="59.292">support-admin</text></g><!--cluster TelegramWebhook--><g class="cluster" data-qualified-name="TelegramWebhook" data-source-line="34" id="ent0014"><rect fill="#EEF2FF" height="227" rx="2.5" ry="2.5" style="stroke:#1F2937;stroke-width:1;" width="1113.88" x="66.7" y="453.2969"/><text fill="#000000" font-family="sans-serif" font-size="14" font-weight="bold" lengthAdjust="spacing" textLength="148.2168" x="549.5316" y="468.292">telegram-webhook</text></g><!--entity Page--><g class="entity" data-qualified-name="SupportAdmin.Page" data-source-line="25" id="ent0007"><rect fill="#F8FAFC" height="52.5938" rx="2.5" ry="2.5" style="stroke:#1F2937;stroke-width:0.5;" width="124.6719" x="675.66" y="227.9969"/><text fill="#000000" font-family="sans-serif" font-size="14" lengthAdjust="spacing" textLength="60.4844" x="707.7538" y="250.992">page.tsx</text><text fill="#000000" font-family="sans-serif" font-size="14" lengthAdjust="spacing" textLength="104.6719" x="685.66" y="267.2889">SSR entrypoint</text></g><!--entity FrontSupabase--><g class="entity" data-qualified-name="SupportAdmin.FrontSupabase" data-source-line="26" id="ent0008"><rect fill="#F8FAFC" height="52.5938" rx="2.5" ry="2.5" style="stroke:#1F2937;stroke-width:0.5;" width="129.5527" x="1010.96" y="271.9969"/><text fill="#000000" font-family="sans-serif" font-size="14" lengthAdjust="spacing" textLength="84.2393" x="1033.6167" y="294.992">supabase.ts</text><text fill="#000000" font-family="sans-serif" font-size="14" lengthAdjust="spacing" textLength="109.5527" x="1020.96" y="311.2889">createClient(...)</text></g><!--entity AdminDashboard--><g class="entity" data-qualified-name="SupportAdmin.AdminDashboard" data-source-line="27" id="ent0009"><rect fill="#F8FAFC" height="52.5938" rx="2.5" ry="2.5" style="stroke:#1F2937;stroke-width:0.5;" width="251.499" x="949.99" y="183.9969"/><text fill="#000000" font-family="sans-serif" font-size="14" lengthAdjust="spacing" textLength="121.0645" x="1015.2073" y="206.992">AdminDashboard</text><text fill="#000000" font-family="sans-serif" font-size="14" lengthAdjust="spacing" textLength="231.499" x="959.99" y="223.2889">search, selection, refresh, theme</text></g><!--entity DashboardShared--><g class="entity" data-qualified-name="SupportAdmin.DashboardShared" data-source-line="28" id="ent0010"><rect fill="#F8FAFC" height="52.5938" rx="2.5" ry="2.5" style="stroke:#1F2937;stroke-width:0.5;" width="307.1846" x="1593.47" y="166.9969"/><text fill="#000000" font-family="sans-serif" font-size="14" lengthAdjust="spacing" textLength="127.3604" x="1683.3821" y="189.992">dashboard-shared</text><text fill="#000000" font-family="sans-serif" font-size="14" lengthAdjust="spacing" textLength="287.1846" x="1603.47" y="206.2889">getChatPreviews / format helpers / types</text></g><!--entity DashboardHero--><g class="entity" data-qualified-name="SupportAdmin.DashboardHero" data-source-line="29" id="ent0011"><rect fill="#F8FAFC" height="52.5938" rx="2.5" ry="2.5" style="stroke:#1F2937;stroke-width:0.5;" width="139.834" x="1327.56" y="290.9969"/><text fill="#000000" font-family="sans-serif" font-size="14" lengthAdjust="spacing" textLength="109.6621" x="1342.6459" y="313.992">DashboardHero</text><text fill="#000000" font-family="sans-serif" font-size="14" lengthAdjust="spacing" textLength="119.834" x="1337.56" y="330.2889">summary header</text></g><!--entity ChatSidebar--><g class="entity" data-qualified-name="SupportAdmin.ChatSidebar" data-source-line="30" id="ent0012"><rect fill="#F8FAFC" height="52.5938" rx="2.5" ry="2.5" style="stroke:#1F2937;stroke-width:0.5;" width="271.9863" x="1261.49" y="78.9969"/><text fill="#000000" font-family="sans-serif" font-size="14" lengthAdjust="spacing" textLength="86.2148" x="1354.3757" y="101.992">ChatSidebar</text><text fill="#000000" font-family="sans-serif" font-size="14" lengthAdjust="spacing" textLength="251.9863" x="1271.49" y="118.2889">chat list + search + router.refresh()</text></g><!--entity MessagePanel--><g class="entity" data-qualified-name="SupportAdmin.MessagePanel" data-source-line="31" id="ent0013"><rect fill="#F8FAFC" height="52.5938" rx="2.5" ry="2.5" style="stroke:#1F2937;stroke-width:0.5;" width="186.3457" x="1304.31" y="166.9969"/><text fill="#000000" font-family="sans-serif" font-size="14" lengthAdjust="spacing" textLength="99.7568" x="1347.6044" y="189.992">MessagePanel</text><text fill="#000000" font-family="sans-serif" font-size="14" lengthAdjust="spacing" textLength="166.3457" x="1314.31" y="206.2889">selected chat transcript</text></g><!--entity WebhookIndex--><g class="entity" data-qualified-name="TelegramWebhook.WebhookIndex" data-source-line="35" id="ent0015"><rect fill="#F8FAFC" height="52.5938" rx="2.5" ry="2.5" style="stroke:#1F2937;stroke-width:0.5;" width="133.2441" x="82.7" y="611.9969"/><text fill="#000000" font-family="sans-serif" font-size="14" lengthAdjust="spacing" textLength="55.7813" x="121.4314" y="634.992">index.ts</text><text fill="#000000" font-family="sans-serif" font-size="14" lengthAdjust="spacing" textLength="113.2441" x="92.7" y="651.2889">HTTP entrypoint</text></g><!--entity WebhookHandlers--><g class="entity" data-qualified-name="TelegramWebhook.WebhookHandlers" data-source-line="36" id="ent0016"><rect fill="#F8FAFC" height="52.5938" rx="2.5" ry="2.5" style="stroke:#1F2937;stroke-width:0.5;" width="250.0635" x="275.95" y="549.9969"/><text fill="#000000" font-family="sans-serif" font-size="14" lengthAdjust="spacing" textLength="77.998" x="361.9827" y="572.992">handlers.ts</text><text fill="#000000" font-family="sans-serif" font-size="14" lengthAdjust="spacing" textLength="230.0635" x="285.95" y="589.2889">/start and inbound message flow</text></g><!--entity WebhookTelegram--><g class="entity" data-qualified-name="TelegramWebhook.WebhookTelegram" data-source-line="37" id="ent0017"><rect fill="#F8FAFC" height="52.5938" rx="2.5" ry="2.5" style="stroke:#1F2937;stroke-width:0.5;" width="303.9785" x="586.01" y="611.9969"/><text fill="#000000" font-family="sans-serif" font-size="14" lengthAdjust="spacing" textLength="80.6982" x="697.6501" y="634.992">telegram.ts</text><text fill="#000000" font-family="sans-serif" font-size="14" lengthAdjust="spacing" textLength="283.9785" x="596.01" y="651.2889">update parsing + sendMessage wrapper</text></g><!--entity WebhookMessages--><g class="entity" data-qualified-name="TelegramWebhook.WebhookMessages" data-source-line="38" id="ent0018"><rect fill="#F8FAFC" height="52.5938" rx="2.5" ry="2.5" style="stroke:#1F2937;stroke-width:0.5;" width="192.2041" x="641.9" y="487.9969"/><text fill="#000000" font-family="sans-serif" font-size="14" lengthAdjust="spacing" textLength="87.4453" x="694.2794" y="510.992">messages.ts</text><text fill="#000000" font-family="sans-serif" font-size="14" lengthAdjust="spacing" textLength="172.2041" x="651.9" y="527.2889">Supabase insert adapter</text></g><!--entity WebhookConfig--><g class="entity" data-qualified-name="TelegramWebhook.WebhookConfig" data-source-line="39" id="ent0019"><rect fill="#F8FAFC" height="52.5938" rx="2.5" ry="2.5" style="stroke:#1F2937;stroke-width:0.5;" width="177.6914" x="986.89" y="549.9969"/><text fill="#000000" font-family="sans-serif" font-size="14" lengthAdjust="spacing" textLength="60.0742" x="1045.6986" y="572.992">config.ts</text><text fill="#000000" font-family="sans-serif" font-size="14" lengthAdjust="spacing" textLength="157.6914" x="996.89" y="589.2889">environment variables</text></g><!--entity SupportManager--><g class="entity" data-qualified-name="SupportManager" data-source-line="19" id="ent0002"><ellipse cx="149.3301" cy="224.6469" fill="#FEF3C7" rx="8" ry="8" style="stroke:#1F2937;stroke-width:0.5;"/><path d="M149.3301,232.6469 L149.3301,259.6469 M136.3301,240.6469 L162.3301,240.6469 M149.3301,259.6469 L136.3301,274.6469 M149.3301,259.6469 L162.3301,274.6469" fill="none" style="stroke:#1F2937;stroke-width:0.5;"/><text fill="#000000" font-family="sans-serif" font-size="14" lengthAdjust="spacing" textLength="121.1602" x="88.75" y="289.142">Support Manager</text></g><!--entity Browser--><g class="entity" data-qualified-name="Browser" data-source-line="20" id="ent0003"><rect fill="#F8FAFC" height="36.2969" rx="2.5" ry="2.5" style="stroke:#1F2937;stroke-width:0.5;" width="77.0391" x="362.46" y="236.1469"/><text fill="#000000" font-family="sans-serif" font-size="14" lengthAdjust="spacing" textLength="57.0391" x="372.46" y="259.142">Browser</text></g><!--entity TelegramApi--><g class="entity" data-qualified-name="TelegramApi" data-source-line="21" id="ent0004"><rect fill="#F8FAFC" height="36.2969" rx="2.5" ry="2.5" style="stroke:#1F2937;stroke-width:0.5;" width="141.2354" x="1005.12" y="697.1469"/><text fill="#000000" font-family="sans-serif" font-size="14" lengthAdjust="spacing" textLength="121.2354" x="1015.12" y="720.142">Telegram Bot API</text></g><!--entity MessagesDb--><g class="entity" data-qualified-name="MessagesDb" data-source-line="22" id="ent0005"><path d="M999.04,385.4969 C999.04,375.4969 1075.7348,375.4969 1075.7348,375.4969 C1075.7348,375.4969 1152.4296,375.4969 1152.4296,385.4969 L1152.4296,427.0906 C1152.4296,437.0906 1075.7348,437.0906 1075.7348,437.0906 C1075.7348,437.0906 999.04,437.0906 999.04,427.0906 L999.04,385.4969" fill="#ECFEFF" style="stroke:#1F2937;stroke-width:0.5;"/><path d="M999.04,385.4969 C999.04,395.4969 1075.7348,395.4969 1075.7348,395.4969 C1075.7348,395.4969 1152.4296,395.4969 1152.4296,385.4969" fill="none" style="stroke:#1F2937;stroke-width:0.5;"/><text fill="#000000" font-family="sans-serif" font-size="14" lengthAdjust="spacing" textLength="133.3896" x="1009.04" y="412.492">Supabase Postgres</text><text fill="#000000" font-family="sans-serif" font-size="14" lengthAdjust="spacing" textLength="116.7852" x="1017.3422" y="428.7889">public.messages</text></g><!--link SupportManager to Browser--><g class="link" data-entity-1="ent0002" data-entity-2="ent0003" data-link-type="dependency" data-source-line="42" id="lnk20"><path d="M210.24,254.2969 C257.52,254.2969 315.63,254.2969 356.15,254.2969" fill="none" id="SupportManager-to-Browser" style="stroke:#4B5563;stroke-width:1.2;"/><polygon fill="#4B5563" points="362.15,254.2969,353.15,250.2969,357.15,254.2969,353.15,258.2969,362.15,254.2969" style="stroke:#4B5563;stroke-width:1.2;"/><text fill="#000000" font-family="sans-serif" font-size="13" lengthAdjust="spacing" textLength="29.7832" x="256.2" y="267.3638">uses</text></g><!--link Browser to Page--><g class="link" data-entity-1="ent0003" data-entity-2="ent0007" data-link-type="dependency" data-source-line="43" id="lnk21"><path d="M439.97,254.2969 C497.67,254.2969 600.38,254.2969 669.35,254.2969" fill="none" id="Browser-to-Page" style="stroke:#4B5563;stroke-width:1.2;"/><polygon fill="#4B5563" points="675.35,254.2969,666.35,250.2969,670.35,254.2969,666.35,258.2969,675.35,254.2969" style="stroke:#4B5563;stroke-width:1.2;"/><text fill="#000000" font-family="sans-serif" font-size="13" lengthAdjust="spacing" textLength="64.9873" x="492.66" y="267.3638">requests /</text></g><!--link Page to FrontSupabase--><g class="link" data-entity-1="ent0007" data-entity-2="ent0008" data-link-type="dependency" data-source-line="44" id="lnk22"><path d="M800.73,274.8669 C860.54,274.8669 944.21,274.8669 1004.75,274.8669" fill="none" id="Page-to-FrontSupabase" style="stroke:#4B5563;stroke-width:1.2;"/><polygon fill="#4B5563" points="1010.75,274.8669,1001.75,270.8669,1005.75,274.8669,1001.75,278.8669,1010.75,274.8669" style="stroke:#4B5563;stroke-width:1.2;"/><text fill="#000000" font-family="sans-serif" font-size="13" lengthAdjust="spacing" textLength="89.5337" x="815.74" y="270.9338">imports client</text></g><!--link Page to MessagesDb--><g class="link" data-entity-1="ent0007" data-entity-2="ent0005" data-link-type="dependency" data-source-line="45" id="lnk23"><path d="M800.75,277.7269 C879.87,277.7269 1005.66,277.7269 1005.66,277.7269 C1005.66,277.7269 1005.66,331.1269 1005.66,369.1769" fill="none" id="Page-to-MessagesDb" style="stroke:#4B5563;stroke-width:1.2;"/><polygon fill="#4B5563" points="1005.66,375.1769,1009.66,366.1769,1005.66,370.1769,1001.66,366.1769,1005.66,375.1769" style="stroke:#4B5563;stroke-width:1.2;"/><text fill="#000000" font-family="sans-serif" font-size="13" lengthAdjust="spacing" textLength="320.1631" x="630.93" y="290.7938">select * from messages order by created_at desc</text></g><!--link Page to AdminDashboard--><g class="link" data-entity-1="ent0007" data-entity-2="ent0009" data-link-type="dependency" data-source-line="46" id="lnk24"><path d="M800.73,232.2969 C842.51,232.2969 892.86,232.2969 943.68,232.2969" fill="none" id="Page-to-AdminDashboard" style="stroke:#4B5563;stroke-width:1.2;"/><polygon fill="#4B5563" points="949.68,232.2969,940.68,228.2969,944.68,232.2969,940.68,236.2969,949.68,232.2969" style="stroke:#4B5563;stroke-width:1.2;"/><text fill="#000000" font-family="sans-serif" font-size="13" lengthAdjust="spacing" textLength="249.939" x="625.21" y="228.3638">passes initialMessages and error state</text></g><!--link AdminDashboard to DashboardHero--><g class="link" data-entity-1="ent0009" data-entity-2="ent0011" data-link-type="dependency" data-source-line="48" id="lnk25"><path d="M1183.66,236.9369 C1183.66,265.8069 1183.66,307.7969 1183.66,307.7969 C1183.66,307.7969 1258.85,307.7969 1321.17,307.7969" fill="none" id="AdminDashboard-to-DashboardHero" style="stroke:#4B5563;stroke-width:1.2;"/><polygon fill="#4B5563" points="1327.17,307.7969,1318.17,303.7969,1322.17,307.7969,1318.17,311.7969,1327.17,307.7969" style="stroke:#4B5563;stroke-width:1.2;"/><text fill="#000000" font-family="sans-serif" font-size="13" lengthAdjust="spacing" textLength="85.7886" x="1220.99" y="320.8638">renders stats</text></g><!--link AdminDashboard to ChatSidebar--><g class="link" data-entity-1="ent0009" data-entity-2="ent0012" data-link-type="dependency" data-source-line="49" id="lnk26"><path d="M1201.84,195.8669 C1242.21,195.8669 1276.66,195.8669 1276.66,195.8669 C1276.66,195.8669 1276.66,164.6969 1276.66,137.9869" fill="none" id="AdminDashboard-to-ChatSidebar" style="stroke:#4B5563;stroke-width:1.2;"/><polygon fill="#4B5563" points="1276.66,131.9869,1272.66,140.9869,1276.66,136.9869,1280.66,140.9869,1276.66,131.9869" style="stroke:#4B5563;stroke-width:1.2;"/><text fill="#000000" font-family="sans-serif" font-size="13" lengthAdjust="spacing" textLength="155.2954" x="1115.19" y="191.9338">renders chat navigation</text></g><!--link AdminDashboard to MessagePanel--><g class="link" data-entity-1="ent0009" data-entity-2="ent0013" data-link-type="dependency" data-source-line="50" id="lnk27"><path d="M1201.98,207.7269 C1235.95,207.7269 1266.1,207.7269 1297.94,207.7269" fill="none" id="AdminDashboard-to-MessagePanel" style="stroke:#4B5563;stroke-width:1.2;"/><polygon fill="#4B5563" points="1303.94,207.7269,1294.94,203.7269,1298.94,207.7269,1294.94,211.7269,1303.94,207.7269" style="stroke:#4B5563;stroke-width:1.2;"/><text fill="#000000" font-family="sans-serif" font-size="13" lengthAdjust="spacing" textLength="141.54" x="1253.96" y="220.7938">renders selected chat</text></g><!--link AdminDashboard to DashboardShared--><g class="link" data-entity-1="ent0009" data-entity-2="ent0010" data-link-type="dependency" data-source-line="51" id="lnk28"><path d="M1201.73,228.0969 C1396.29,228.0969 1747.66,228.0969 1747.66,228.0969 C1747.66,228.0969 1747.66,230.6969 1747.66,226.0269" fill="none" id="AdminDashboard-to-DashboardShared" style="stroke:#4B5563;stroke-width:1.2;"/><polygon fill="#4B5563" points="1747.66,220.0269,1743.66,229.0269,1747.66,225.0269,1751.66,229.0269,1747.66,220.0269" style="stroke:#4B5563;stroke-width:1.2;"/><text fill="#000000" font-family="sans-serif" font-size="13" lengthAdjust="spacing" textLength="356.6812" x="1479.73" y="241.1638">getChatPreviews, getDisplayName, getUsernameLabel</text></g><!--link ChatSidebar to DashboardShared--><g class="link" data-entity-1="ent0012" data-entity-2="ent0010" data-link-type="dependency" data-source-line="52" id="lnk29"><path d="M1512.66,131.6869 C1512.66,154.7269 1512.66,184.5369 1512.66,184.5369 C1512.66,184.5369 1542.97,184.5369 1587,184.5369" fill="none" id="ChatSidebar-to-DashboardShared" style="stroke:#4B5563;stroke-width:1.2;"/><polygon fill="#4B5563" points="1593,184.5369,1584,180.5369,1588,184.5369,1584,188.5369,1593,184.5369" style="stroke:#4B5563;stroke-width:1.2;"/><text fill="#000000" font-family="sans-serif" font-size="13" lengthAdjust="spacing" textLength="75.8164" x="1527.4" y="197.6038">formatTime</text></g><!--link MessagePanel to DashboardShared--><g class="link" data-entity-1="ent0013" data-entity-2="ent0010" data-link-type="dependency" data-source-line="53" id="lnk30"><path d="M1490.7,202.0669 C1522.16,202.0669 1552.15,202.0669 1587.03,202.0669" fill="none" id="MessagePanel-to-DashboardShared" style="stroke:#4B5563;stroke-width:1.2;"/><polygon fill="#4B5563" points="1593.03,202.0669,1584.03,198.0669,1588.03,202.0669,1584.03,206.0669,1593.03,202.0669" style="stroke:#4B5563;stroke-width:1.2;"/><text fill="#000000" font-family="sans-serif" font-size="13" lengthAdjust="spacing" textLength="322.8799" x="1542.87" y="215.1338">formatTime, getDisplayName, getUsernameLabel</text></g><!--link ChatSidebar to Page--><g class="link" data-entity-1="ent0012" data-entity-2="ent0007" data-link-type="dependency" data-source-line="54" id="lnk31"><path d="M1290.66,131.9369 C1290.66,174.7969 1290.66,254.2969 1290.66,254.2969 C1290.66,254.2969 951.28,254.2969 806.59,254.2969" fill="none" id="ChatSidebar-to-Page" style="stroke:#4B5563;stroke-width:1.2;"/><polygon fill="#4B5563" points="800.59,254.2969,809.59,258.2969,805.59,254.2969,809.59,250.2969,800.59,254.2969" style="stroke:#4B5563;stroke-width:1.2;"/><text fill="#000000" font-family="sans-serif" font-size="13" lengthAdjust="spacing" textLength="290.5195" x="1107.81" y="267.3638">triggers router.refresh via Next.js navigation</text></g><!--link TelegramApi to WebhookIndex--><g class="link" data-entity-1="ent0004" data-entity-2="ent0015" data-link-type="dependency" data-source-line="56" id="lnk32"><path d="M1004.99,715.2969 C788.51,715.2969 149.66,715.2969 149.66,715.2969 C149.66,715.2969 149.66,693.0669 149.66,670.7969" fill="none" id="TelegramApi-to-WebhookIndex" style="stroke:#4B5563;stroke-width:1.2;"/><polygon fill="#4B5563" points="149.66,664.7969,145.66,673.7969,149.66,669.7969,153.66,673.7969,149.66,664.7969" style="stroke:#4B5563;stroke-width:1.2;"/><text fill="#000000" font-family="sans-serif" font-size="13" lengthAdjust="spacing" textLength="84.2017" x="467.07" y="728.3638">POST update</text></g><!--link WebhookIndex to WebhookTelegram--><g class="link" data-entity-1="ent0015" data-entity-2="ent0017" data-link-type="dependency" data-source-line="57" id="lnk33"><path d="M216.28,638.2969 C305.56,638.2969 460.19,638.2969 579.71,638.2969" fill="none" id="WebhookIndex-to-WebhookTelegram" style="stroke:#4B5563;stroke-width:1.2;"/><polygon fill="#4B5563" points="585.71,638.2969,576.71,634.2969,580.71,638.2969,576.71,642.2969,585.71,638.2969" style="stroke:#4B5563;stroke-width:1.2;"/><text fill="#000000" font-family="sans-serif" font-size="13" lengthAdjust="spacing" textLength="221.0444" x="179" y="651.3638">extractTelegramMessage(update)</text></g><!--link WebhookIndex to WebhookHandlers--><g class="link" data-entity-1="ent0015" data-entity-2="ent0016" data-link-type="dependency" data-source-line="58" id="lnk34"><path d="M149.66,611.6469 C149.66,594.8369 149.66,576.2969 149.66,576.2969 C149.66,576.2969 206.73,576.2969 269.69,576.2969" fill="none" id="WebhookIndex-to-WebhookHandlers" style="stroke:#4B5563;stroke-width:1.2;"/><polygon fill="#4B5563" points="275.69,576.2969,266.69,572.2969,270.69,576.2969,266.69,580.2969,275.69,576.2969" style="stroke:#4B5563;stroke-width:1.2;"/><text fill="#000000" font-family="sans-serif" font-size="13" lengthAdjust="spacing" textLength="187.2559" x="7" y="589.3638">dispatches /start or text flow</text></g><!--link WebhookHandlers to WebhookConfig--><g class="link" data-entity-1="ent0016" data-entity-2="ent0019" data-link-type="dependency" data-source-line="59" id="lnk35"><path d="M526.31,567.5369 C660.09,567.5369 862.66,567.5369 980.61,567.5369" fill="none" id="WebhookHandlers-to-WebhookConfig" style="stroke:#4B5563;stroke-width:1.2;"/><polygon fill="#4B5563" points="986.61,567.5369,977.61,563.5369,981.61,567.5369,977.61,571.5369,986.61,567.5369" style="stroke:#4B5563;stroke-width:1.2;"/><text fill="#000000" font-family="sans-serif" font-size="13" lengthAdjust="spacing" textLength="150.9155" x="605.46" y="580.6038">validates env presence</text></g><!--link WebhookHandlers to WebhookMessages--><g class="link" data-entity-1="ent0016" data-entity-2="ent0018" data-link-type="dependency" data-source-line="60" id="lnk36"><path d="M483.66,549.6469 C483.66,532.8369 483.66,514.2969 483.66,514.2969 C483.66,514.2969 563.53,514.2969 635.48,514.2969" fill="none" id="WebhookHandlers-to-WebhookMessages" style="stroke:#4B5563;stroke-width:1.2;"/><polygon fill="#4B5563" points="641.48,514.2969,632.48,510.2969,636.48,514.2969,632.48,518.2969,641.48,514.2969" style="stroke:#4B5563;stroke-width:1.2;"/><text fill="#000000" font-family="sans-serif" font-size="13" lengthAdjust="spacing" textLength="169.8887" x="374.9" y="527.3638">saveIncomingMessage(...)</text></g><!--link WebhookHandlers to WebhookTelegram--><g class="link" data-entity-1="ent0016" data-entity-2="ent0017" data-link-type="dependency" data-source-line="61" id="lnk37"><path d="M526.2,585.0669 C572.84,585.0669 614.66,585.0669 614.66,585.0669 C614.66,585.0669 614.66,592.3769 614.66,605.6769" fill="none" id="WebhookHandlers-to-WebhookTelegram" style="stroke:#4B5563;stroke-width:1.2;"/><polygon fill="#4B5563" points="614.66,611.6769,618.66,602.6769,614.66,606.6769,610.66,602.6769,614.66,611.6769" style="stroke:#4B5563;stroke-width:1.2;"/><text fill="#000000" font-family="sans-serif" font-size="13" lengthAdjust="spacing" textLength="172.5547" x="584.74" y="598.1338">sendTelegramMessage(...)</text></g><!--link WebhookMessages to WebhookConfig--><g class="link" data-entity-1="ent0018" data-entity-2="ent0019" data-link-type="dependency" data-source-line="62" id="lnk38"><path d="M834.29,514.2969 C906.76,514.2969 993.66,514.2969 993.66,514.2969 C993.66,514.2969 993.66,526.8369 993.66,543.6469" fill="none" id="WebhookMessages-to-WebhookConfig" style="stroke:#4B5563;stroke-width:1.2;"/><polygon fill="#4B5563" points="993.66,549.6469,997.66,540.6469,993.66,544.6469,989.66,540.6469,993.66,549.6469" style="stroke:#4B5563;stroke-width:1.2;"/><text fill="#000000" font-family="sans-serif" font-size="13" lengthAdjust="spacing" textLength="240.7285" x="932.65" y="527.3638">reads Supabase URL and service key</text></g><!--link WebhookMessages to MessagesDb--><g class="link" data-entity-1="ent0018" data-entity-2="ent0005" data-link-type="dependency" data-source-line="63" id="lnk39"><path d="M817.66,487.5969 C817.66,455.6169 817.66,406.2969 817.66,406.2969 C817.66,406.2969 916.61,406.2969 992.66,406.2969" fill="none" id="WebhookMessages-to-MessagesDb" style="stroke:#4B5563;stroke-width:1.2;"/><polygon fill="#4B5563" points="998.66,406.2969,989.66,402.2969,993.66,406.2969,989.66,410.2969,998.66,406.2969" style="stroke:#4B5563;stroke-width:1.2;"/><text fill="#000000" font-family="sans-serif" font-size="13" lengthAdjust="spacing" textLength="122.0464" x="744.51" y="419.3638">insert inbound row</text></g><!--link WebhookTelegram to WebhookConfig--><g class="link" data-entity-1="ent0017" data-entity-2="ent0019" data-link-type="dependency" data-source-line="64" id="lnk40"><path d="M890.33,629.5369 C946.49,629.5369 996.66,629.5369 996.66,629.5369 C996.66,629.5369 996.66,622.2269 996.66,608.9169" fill="none" id="WebhookTelegram-to-WebhookConfig" style="stroke:#4B5563;stroke-width:1.2;"/><polygon fill="#4B5563" points="996.66,602.9169,992.66,611.9169,996.66,607.9169,1000.66,611.9169,996.66,602.9169" style="stroke:#4B5563;stroke-width:1.2;"/><text fill="#000000" font-family="sans-serif" font-size="13" lengthAdjust="spacing" textLength="102.7178" x="957.8" y="642.6038">reads bot token</text></g><!--link WebhookTelegram to TelegramApi--><g class="link" data-entity-1="ent0017" data-entity-2="ent0004" data-link-type="dependency" data-source-line="65" id="lnk41"><path d="M890.49,647.0669 C980.38,647.0669 1076.66,647.0669 1076.66,647.0669 C1076.66,647.0669 1076.66,670.4469 1076.66,690.6569" fill="none" id="WebhookTelegram-to-TelegramApi" style="stroke:#4B5563;stroke-width:1.2;"/><polygon fill="#4B5563" points="1076.66,696.6569,1080.66,687.6569,1076.66,691.6569,1072.66,687.6569,1076.66,696.6569" style="stroke:#4B5563;stroke-width:1.2;"/><text fill="#000000" font-family="sans-serif" font-size="13" lengthAdjust="spacing" textLength="131.0156" x="1009.37" y="660.1338">POST /sendMessage</text></g><?plantuml-src dLPHRzis47xNhpXaB-aQEsYohbiV1ZW9XWHeEoDsiPS0mqawIPmbKYDfEyQm_zuZHJcawxh0NWoBlE_ZtV7xJhB2jWIBTTyhRM-KXGdSggvNagI5Eu6rnYxBMgeiM0LQr8s5KcWgh50oCoiXU-GGC0sMQYja3HMsXgAT7eiLrhImEpx80L7MRHpG2absrnDm1esADaggSDtQ9JtRMIjgsRcS2luX7KNDj5RRMzKg3J_ybBzz-_FruUQo4SLAaZ7mPdeLRJwEoTmeNP8E76-ggr-ltnqDuqfghTQo3A7LBnLMHHGw7sezpJS67R8HLLTL5GNUeSKSpNVezb5VyHKL9NopmYfzccm8-QfEggwBTrc6RXVEWbhW8qgkGvy1cb51OIdRtpEStV0Dc10L_iVRIsh9YGoS-6Rp1nytBivwaPMXFd_ky6-kZAqrcIVPh_DM5DEEBvVFDHxyCJpSvLaMn0TdPiXlWcKdP9pnp2t0lnb0b5JFcAarpqzoiNW4LfpUzKf8wu5ptap3JKYC8K-oq8IMRbl1iFFfTFhAWtxNIjgnW1JjCxX3q-GATVaa3Q4kcWimt0HlimkEhhXSNhCDTUG9KrJAM8xB4xQb9kQioTusQEUQDeAs1YwXKhf32msrFMctu2muD73Fkl3eb7k_UKzQSRBhhaEzOnuimoKd4IdOvR0G9UMekL7ymEOt5bx3K3F_OTcnlQUXuFEXUH4ivGjNFKT9hMkSQnYLu9cjHcaABNeRgyA7Plz5oh11QvCjvOrIgqI0VmvhX_eGigHdVzlto-NyK201zE22Kbo3icovtHvwQIooYtW9XCoTtI3e6AfMRMEg-u1BsSRCFTkwPwCGJrjjt1HsBPLbA1gs6li-N4-W72jCAKSZUSgztmItrcLQOczJbj5hAKkXP2Lgpq5o8rZwVdHlK0lCsw2om73hOzsDf2C49fFVnda1xs5j-93nqMqv5_Awfd_MP2mBEFChRYln6iU8pl4QABmdN-9U1WK73UA17w7IgXilme2Vbf3lOB1r-HShgoHJlB2aHcIc7WqdoqqJLc0x7kBlcVXrf87ltLAM7G0TLs8TNnrhYDtf4EOO87965ExrBt4ZQlIlwIF0s0xnGR65JcOup0Q67eoM2xTm9qpVukuJTkIVF_EjINxuW3cxBqxwEESmd9QYeon9z7lH_-Fme2FBdpQrwq0wW60Z43xn1yZqRnDtD8lUK9uczZpJpVzOB66mP9PiHR7xDzzxu0Cqlrp7bL3p-K3mwfiCurXWXfABHbiqBBGmLrXebddzBCaE0H79O42cs60ht7c6vza6UYwVP46de7jjitrmGm-oK2oOUapVlVnEmQC6k65rM7qCtvzqB75sPkdVvuFXFpz-y6RZQz-8Wc15kwCqYVt3Y1i7iNxfsJxBRn-TA_Trl29v51DB9IZZCXhEsHS0?></g></svg>